name Walk4.mot
datacolumns 19
datarows 12
range 2.00500000 2.06000000
endheader

                time	   L_ground_force_vx	   L_ground_force_vy	   L_ground_force_vz	   L_ground_force_px	   L_ground_force_py	   L_ground_force_pz	   R_ground_force_vx	   R_ground_force_vy	   R_ground_force_vz	   R_ground_force_px	   R_ground_force_py	   R_ground_force_pz	   L_ground_torque_x	   L_ground_torque_y	   L_ground_torque_z	   R_ground_torque_x	   R_ground_torque_y	   R_ground_torque_z	
          2.00500000	          0.00310176	          0.01434662	         -0.00217719	         -0.00015886	          0.00000000	         -0.00005148	        -23.24645544	        528.40153479	        -36.84475927	          0.24442136	          0.00000000	          0.08287896	          0.00000000	          0.00010235	          0.00000000	          0.00000000	          1.61945642	          0.00000000	
          2.01000000	         -0.00035547	          0.00261966	         -0.00172027	         -0.00011488	          0.00000000	         -0.00003778	        -20.68081525	        518.16945070	        -36.50419417	          0.24645517	          0.00000000	          0.08351772	          0.00000000	          0.00007313	          0.00000000	          0.00000000	          1.58564944	          0.00000000	
          2.01500000	         -0.00254442	         -0.00510779	         -0.00129121	         -0.00007760	          0.00000000	         -0.00002601	        -18.29615918	        508.69524043	        -36.20634704	          0.24855806	          0.00000000	          0.08416129	          0.00000000	          0.00004861	          0.00000000	          0.00000000	          1.54620338	          0.00000000	
          2.02000000	         -0.00374691	         -0.00965929	         -0.00091394	         -0.00004755	          0.00000000	         -0.00001641	        -16.08910791	        500.02850283	        -35.92636321	          0.25073013	          0.00000000	          0.08480239	          0.00000000	          0.00002904	          0.00000000	          0.00000000	          1.50308007	          0.00000000	
          2.02500000	         -0.00422171	         -0.01181415	         -0.00059972	         -0.00002452	          0.00000000	         -0.00000895	        -14.05486576	        492.20788049	        -35.63855849	          0.25296587	          0.00000000	          0.08543305	          0.00000000	          0.00001420	          0.00000000	          0.00000000	          1.45818851	          0.00000000	
          2.03000000	         -0.00419230	         -0.01226166	         -0.00035079	         -0.00000782	          0.00000000	         -0.00000346	        -12.18814479	        485.26435664	        -35.32143338	          0.25525571	          0.00000000	          0.08604775	          0.00000000	          0.00000356	          0.00000000	          0.00000000	          1.41307213	          0.00000000	
          2.03500000	         -0.00384189	         -0.01157889	         -0.00016341	          0.00000352	          0.00000000	          0.00000034	        -10.48207625	        479.22365788	        -34.96163622	          0.25758847	          0.00000000	          0.08664337	          0.00000000	         -0.00000355	          0.00000000	          0.00000000	          1.36865910	          0.00000000	
          2.04000000	         -0.00331332	         -0.01022529	         -0.00003032	          0.00001051	          0.00000000	          0.00000274	         -8.92765338	        474.10730740	        -34.55645396	          0.25995307	          0.00000000	          0.08721810	          0.00000000	         -0.00000783	          0.00000000	          0.00000000	          1.32504779	          0.00000000	
          2.04500000	         -0.00271232	         -0.00854856	          0.00005742	          0.00001416	          0.00000000	          0.00000407	         -7.51376792	        469.93105810	        -34.11456806	          0.26233575	          0.00000000	          0.08776997	          0.00000000	         -0.00000995	          0.00000000	          0.00000000	          1.28192085	          0.00000000	
          2.05000000	         -0.00211240	         -0.00679722	          0.00010915	          0.00001538	          0.00000000	          0.00000460	         -6.22784809	        466.70445163	        -33.65542095	          0.26472093	          0.00000000	          0.08829683	          0.00000000	         -0.00001053	          0.00000000	          0.00000000	          1.23889424	          0.00000000	
          2.05500000	         -0.00156062	         -0.00513654	          0.00013369	          0.00001495	          0.00000000	          0.00000457	         -5.05577053	        464.42905235	        -33.20674964	          0.26709257	          0.00000000	          0.08879715	          0.00000000	         -0.00001006	          0.00000000	          0.00000000	          1.19560354	          0.00000000	
          2.06000000	         -0.00108334	         -0.00366534	          0.00013885	          0.00001349	          0.00000000	          0.00000420	         -3.98146441	        463.09421805	        -32.80060168	          0.26943326	          0.00000000	          0.08926917	          0.00000000	         -0.00000897	          0.00000000	          0.00000000	          1.15190885	          0.00000000	
